<?xml version="1.0" standalone="no"?>
<!DOCTYPE svg PUBLIC "-//W3C//DTD SVG 20010904//EN"
 "http://www.w3.org/TR/2001/REC-SVG-20010904/DTD/svg10.dtd">
<svg version="1.0" xmlns="http://www.w3.org/2000/svg"
 width="225.000000pt" height="225.000000pt" viewBox="0 0 225.000000 225.000000"
 preserveAspectRatio="xMidYMid meet">

<g transform="translate(0.000000,225.000000) scale(0.100000,-0.100000)"
fill="#000000" stroke="none">
<path d="M568 1423 c7 -3 16 -2 19 1 4 3 -2 6 -13 5 -11 0 -14 -3 -6 -6z"/>
<path d="M1460 1147 c0 -148 1 -154 23 -175 15 -14 36 -22 60 -22 33 0 37 3
37 25 0 20 -5 25 -25 25 -25 0 -25 1 -25 90 l0 90 39 0 39 0 4 -96 c3 -86 5
-98 27 -115 31 -26 91 -25 125 2 l26 20 0 -20 c0 -17 6 -21 30 -21 l30 0 0
135 0 135 -30 0 -30 0 0 -81 c0 -90 -9 -115 -47 -130 -19 -7 -32 -6 -49 6 -22
14 -24 22 -24 110 l0 95 -70 0 -70 0 0 40 c0 39 -1 40 -35 40 l-35 0 0 -153z"/>
<path d="M496 1220 c-68 -21 -106 -96 -86 -168 17 -65 71 -102 147 -102 72 0
91 8 86 34 -4 20 -9 22 -68 18 -54 -4 -66 -1 -84 17 -42 42 -30 51 74 51 95 0
95 0 95 25 0 89 -81 151 -164 125z m78 -61 c45 -35 34 -49 -39 -49 -58 0 -65
2 -65 19 0 22 35 51 61 51 9 0 28 -9 43 -21z"/>
<path d="M795 1210 c-47 -24 -45 -24 -45 -5 0 10 -10 15 -30 15 l-30 0 0 -135
0 -135 30 0 30 0 0 90 c0 102 15 130 70 130 41 0 50 -23 50 -129 l0 -91 30 0
30 0 0 105 c0 114 -9 147 -47 164 -33 15 -43 14 -88 -9z"/>
<path d="M1013 1223 c-33 -4 -37 -10 -28 -36 5 -10 18 -13 55 -9 56 5 100 -16
100 -47 0 -15 -10 -19 -65 -24 -81 -6 -105 -24 -105 -78 0 -29 6 -42 26 -58
32 -25 90 -28 122 -5 20 14 22 14 22 0 0 -11 10 -16 30 -16 l30 0 0 106 c0 58
-5 114 -11 126 -21 39 -81 53 -176 41z m127 -178 c0 -20 -36 -55 -56 -55 -23
0 -54 19 -54 33 0 24 24 37 67 37 32 0 43 -4 43 -15z"/>
<path d="M1329 1221 c-70 -22 -99 -61 -99 -133 0 -82 58 -138 142 -138 51 0
73 12 65 34 -5 11 -19 16 -52 16 -59 0 -95 32 -95 84 0 54 35 87 98 94 41 3
52 8 52 22 0 27 -55 37 -111 21z"/>
<path d="M1956 1220 c-37 -12 -66 -38 -66 -62 0 -37 21 -58 86 -88 50 -22 65
-34 62 -47 -3 -15 -14 -18 -75 -17 -61 1 -72 -1 -76 -17 -6 -23 37 -39 102
-39 57 0 92 17 109 53 19 39 -5 72 -72 102 -60 26 -79 45 -66 64 6 11 23 13
69 8 59 -7 61 -6 61 17 0 19 -7 24 -37 30 -47 7 -60 7 -97 -4z"/>
<path d="M690 786 c0 -19 3 -37 8 -40 4 -2 6 13 4 35 -5 48 -12 51 -12 5z"/>
<path d="M903 785 c0 -22 2 -30 4 -17 2 12 2 30 0 40 -3 9 -5 -1 -4 -23z"/>
<path d="M1523 780 c0 -25 2 -35 4 -22 2 12 2 32 0 45 -2 12 -4 2 -4 -23z"/>
<path d="M1643 780 c0 -25 2 -35 4 -22 2 12 2 32 0 45 -2 12 -4 2 -4 -23z"/>
<path d="M1920 781 c0 -17 4 -32 8 -35 4 -2 6 11 4 30 -5 42 -12 45 -12 5z"/>
<path d="M811 784 c0 -11 3 -14 6 -6 3 7 2 16 -1 19 -3 4 -6 -2 -5 -13z"/>
<path d="M871 784 c0 -11 3 -14 6 -6 3 7 2 16 -1 19 -3 4 -6 -2 -5 -13z"/>
<path d="M960 797 c0 -3 12 -12 26 -22 15 -9 23 -12 20 -6 -7 11 -46 35 -46
28z"/>
<path d="M1023 785 c-3 -9 -3 -18 -1 -21 3 -3 8 4 11 16 6 23 -1 27 -10 5z"/>
<path d="M1082 775 c0 -16 2 -22 5 -12 2 9 2 23 0 30 -3 6 -5 -1 -5 -18z"/>
<path d="M1244 785 c-3 -8 -4 -20 -2 -27 3 -7 7 -1 10 15 6 29 1 36 -8 12z"/>
<path d="M1492 780 c0 -14 2 -19 5 -12 2 6 2 18 0 25 -3 6 -5 1 -5 -13z"/>
<path d="M1742 775 c0 -16 2 -22 5 -12 2 9 2 23 0 30 -3 6 -5 -1 -5 -18z"/>
<path d="M1842 770 c0 -14 2 -19 5 -12 2 6 2 18 0 25 -3 6 -5 1 -5 -13z"/>
<path d="M537 749 c7 -7 15 -10 18 -7 3 3 -2 9 -12 12 -14 6 -15 5 -6 -5z"/>
<path d="M827 748 c2 -5 10 -8 18 -8 8 0 16 3 18 8 3 4 -5 7 -18 7 -13 0 -21
-3 -18 -7z"/>
<path d="M1677 749 c7 -7 15 -10 18 -7 3 3 -2 9 -12 12 -14 6 -15 5 -6 -5z"/>
</g>
</svg>
